<svg width="194" height="157" viewBox="0 0 194 157" fill="none" xmlns="http://www.w3.org/2000/svg">
<path d="M192.882 22.3493C192.882 10.7205 177.836 1.29431 159.291 1.29431C140.746 1.29431 125.684 10.7205 125.684 22.3493C125.684 22.3493 125.036 42.7241 131.903 55.0818C117.541 49.5277 102.26 46.7363 86.8618 46.8541C39.7634 46.8541 1.57275 71.278 1.57275 101.419C1.57275 131.56 39.7634 155.984 86.8618 155.984C132.065 155.984 169.025 133.487 171.957 105.047L172.167 105.29C172.167 105.29 174.386 84.3968 156.862 56.7014C153.855 52.0927 151.15 47.294 148.764 42.3354C152.221 43.0543 155.744 43.4125 159.275 43.4044C177.836 43.4044 192.882 33.9782 192.882 22.3493Z" fill="url(#paint0_linear)"/>
<path d="M131.385 54.1098C131.547 54.4337 131.725 54.7739 131.904 55.0816L130.867 54.6767" stroke="#F95F6A" stroke-width="1.47814" stroke-linecap="round" stroke-linejoin="round"/>
<path d="M120.242 51.2107C109.356 48.2968 98.1314 46.8373 86.8618 46.8702C39.7634 46.8702 1.57275 71.294 1.57275 101.435C1.57275 131.576 39.7634 156 86.8618 156C128.518 156 163.162 136.905 170.645 111.655" stroke="#F95F6A" stroke-width="1.47814" stroke-linecap="round" stroke-linejoin="round" stroke-dasharray="0.49 2.44"/>
<path d="M171.81 106.181C171.81 105.808 171.907 105.436 171.956 105.063L172.167 105.306C172.167 105.306 172.167 104.918 172.167 104.172" stroke="#F95F6A" stroke-width="1.47814" stroke-linecap="round" stroke-linejoin="round"/>
<path d="M171.341 92.8673C168.963 79.9705 164.04 67.6761 156.861 56.7012C154.869 53.5592 153.233 50.8058 151.889 48.4088" stroke="#F95F6A" stroke-width="1.47814" stroke-linecap="round" stroke-linejoin="round" stroke-dasharray="0.49 2.48"/>
<path d="M149.25 43.3556C149.088 43.0155 148.926 42.6753 148.78 42.3352L149.881 42.562" stroke="#F95F6A" stroke-width="1.47814" stroke-linecap="round" stroke-linejoin="round"/>
<path d="M161.041 43.3719C178.857 42.805 192.882 33.6542 192.882 22.3169C192.882 10.688 177.836 1.26184 159.292 1.26184C140.747 1.26184 125.684 10.688 125.684 22.3169C125.684 22.3169 125.215 36.8934 129.248 48.9109" stroke="#F95F6A" stroke-width="1.47814" stroke-linecap="round" stroke-linejoin="round" stroke-dasharray="0.49 2.44"/>
<defs>
<linearGradient id="paint0_linear" x1="271720" y1="72034.1" x2="285948" y2="82194.6" gradientUnits="userSpaceOnUse">
<stop stop-color="#6F0000"/>
<stop offset="0.18" stop-color="#7F0808"/>
<stop offset="0.54" stop-color="#A91E1C"/>
<stop offset="1" stop-color="#E93E3A"/>
</linearGradient>
</defs>
</svg>
