<svg width="194" height="157" viewBox="0 0 194 157" fill="none" xmlns="http://www.w3.org/2000/svg">
<path d="M192.309 22.3493C192.309 10.7205 177.263 1.29431 158.718 1.29431C140.174 1.29431 125.111 10.7205 125.111 22.3493C125.111 22.3493 124.463 42.7241 131.331 55.0818C116.969 49.5277 101.687 46.7363 86.2891 46.8541C39.1906 46.8541 1 71.278 1 101.419C1 131.56 39.1906 155.984 86.2891 155.984C131.493 155.984 168.452 133.487 171.384 105.047L171.594 105.29C171.594 105.29 173.813 84.3968 156.289 56.7014C153.282 52.0927 150.577 47.294 148.191 42.3354C151.648 43.0543 155.171 43.4125 158.702 43.4044C177.263 43.4044 192.309 33.9782 192.309 22.3493Z" fill="url(#paint0_linear)"/>
<path d="M130.813 54.1098C130.975 54.4337 131.153 54.7739 131.331 55.0816L130.294 54.6767" stroke="#F95F6A" stroke-width="1.47814" stroke-linecap="round" stroke-linejoin="round"/>
<path d="M119.669 51.2107C108.783 48.2968 97.5587 46.8373 86.2891 46.8702C39.1906 46.8702 1 71.294 1 101.435C1 131.576 39.1906 156 86.2891 156C127.946 156 162.589 136.905 170.072 111.655" stroke="#F95F6A" stroke-width="1.47814" stroke-linecap="round" stroke-linejoin="round" stroke-dasharray="0.49 2.44"/>
<path d="M171.237 106.181C171.237 105.808 171.335 105.436 171.383 105.063L171.594 105.306C171.594 105.306 171.594 104.918 171.594 104.172" stroke="#F95F6A" stroke-width="1.47814" stroke-linecap="round" stroke-linejoin="round"/>
<path d="M170.768 92.8673C168.39 79.9705 163.468 67.6761 156.289 56.7012C154.296 53.5592 152.661 50.8058 151.316 48.4088" stroke="#F95F6A" stroke-width="1.47814" stroke-linecap="round" stroke-linejoin="round" stroke-dasharray="0.49 2.48"/>
<path d="M148.677 43.3556C148.515 43.0155 148.353 42.6753 148.207 42.3352L149.308 42.562" stroke="#F95F6A" stroke-width="1.47814" stroke-linecap="round" stroke-linejoin="round"/>
<path d="M160.468 43.3719C178.284 42.805 192.31 33.6542 192.31 22.3169C192.31 10.688 177.263 1.26184 158.719 1.26184C140.174 1.26184 125.112 10.688 125.112 22.3169C125.112 22.3169 124.642 36.8934 128.675 48.9109" stroke="#F95F6A" stroke-width="1.47814" stroke-linecap="round" stroke-linejoin="round" stroke-dasharray="0.49 2.44"/>
<defs>
<linearGradient id="paint0_linear" x1="141.696" y1="142.93" x2="78.0452" y2="32.6825" gradientUnits="userSpaceOnUse">
<stop stop-color="#FFF33B"/>
<stop offset="0.03" stop-color="#FEE53E"/>
<stop offset="0.16" stop-color="#F8B448"/>
<stop offset="0.29" stop-color="#F38A50"/>
<stop offset="0.42" stop-color="#F06857"/>
<stop offset="0.56" stop-color="#ED4D5C"/>
<stop offset="0.7" stop-color="#EB3A60"/>
<stop offset="0.84" stop-color="#E92F62"/>
<stop offset="0.98" stop-color="#E92B63"/>
</linearGradient>
</defs>
</svg>
